# xmcd
#
# Track frame offsets: 
#        150
#        17271
#        35466
#        54462
#        72852
#        92181
#        107676
#        121050
#        131112
#        149523
#        162528
#        180438
#        199077
#        214518
#
# Disc length: 3136 seconds
#
# Revision: 6
# Processed by: cddbd v1.5.2PL0 Copyright (c) Steve Scherf et al.
# Submitted via: ExactAudioCopyFreeDBPlugin 1.0
#
DISCID=c10c3e0e
DTITLE=Diversos - O Boticário - Sertanejo
DYEAR=2003
DGENRE=Country
TTITLE0=Daniel - Esperança
TTITLE1=Leandro and Leonardo - Sonho por Sonho
TTITLE2=Rick and Rener - Cara de Pau
TTITLE3=Luiz Henrique and Fernando - É o Amor
TTITLE4=Gino and Geno - Apaixonado por Você
TTITLE5=Sérgio Reis - Vaca Estrela e Boi Fubá
TTITLE6=Ataíde and Alexandre - Tá Nervoso...Vai Pescar
TTITLE7=Almir Sater - Chalana
TTITLE8=João Paulo and Daniel - Minha Estrela Perdida
TTITLE9=Cezar and Paulinho - Canta Moçada
TTITLE10=Leandro and Leonardo - Rumo a Goiânia
TTITLE11=Daniel - Vida Minha
TTITLE12=Bruno and Marrone - Tá Combinado Assim
TTITLE13=Roberta Miranda - Luar do Sertão
EXTD=
EXTT0=
EXTT1=
EXTT2=
EXTT3=
EXTT4=
EXTT5=
EXTT6=
EXTT7=
EXTT8=
EXTT9=
EXTT10=
EXTT11=
EXTT12=
EXTT13=
PLAYORDER=
